<svg xmlns="http://www.w3.org/2000/svg" xmlns:xlink="http://www.w3.org/1999/xlink" xmlns:s="https://github.com/nturley/netlistsvg" width="513" height="442.5">
  <style>svg {
    stroke:#000;
    fill:none;
  }
  text {
    fill:#000;
    stroke:none;
    font-size:10px;
    font-weight: bold;
    font-family: "Courier New", monospace;
  }
  .nodelabel {
    text-anchor: middle;
  }
  .inputPortLabel {
    text-anchor: end;
  }
  .splitjoinBody {
    fill:#000;
  }</style>
  <g s:type="dff" transform="translate(445,333)" s:width="30" s:height="40" id="cell_DFF_0">
    <s:alias val="$dff"/>
    <s:alias val="$_DFF_"/>
    <s:alias val="$_DFF_P_"/>
    <rect width="30" height="40" x="0" y="0" class="cell_DFF_0"/>
    <path d="M0,35 L5,30 L0,25" class="cell_DFF_0"/>
    <g s:x="30" s:y="10" s:pid="Q"/>
    <g s:x="0" s:y="30" s:pid="CLK"/>
    <g s:x="0" s:y="30" s:pid="C"/>
    <g s:x="0" s:y="10" s:pid="D"/>
  </g>
  <g s:type="dff" transform="translate(42,325.5)" s:width="30" s:height="40" id="cell_DFF_1">
    <s:alias val="$dff"/>
    <s:alias val="$_DFF_"/>
    <s:alias val="$_DFF_P_"/>
    <rect width="30" height="40" x="0" y="0" class="cell_DFF_1"/>
    <path d="M0,35 L5,30 L0,25" class="cell_DFF_1"/>
    <g s:x="30" s:y="10" s:pid="Q"/>
    <g s:x="0" s:y="30" s:pid="CLK"/>
    <g s:x="0" s:y="30" s:pid="C"/>
    <g s:x="0" s:y="10" s:pid="D"/>
  </g>
  <g s:type="dff" transform="translate(42,109)" s:width="30" s:height="40" id="cell_DFF_2">
    <s:alias val="$dff"/>
    <s:alias val="$_DFF_"/>
    <s:alias val="$_DFF_P_"/>
    <rect width="30" height="40" x="0" y="0" class="cell_DFF_2"/>
    <path d="M0,35 L5,30 L0,25" class="cell_DFF_2"/>
    <g s:x="30" s:y="10" s:pid="Q"/>
    <g s:x="0" s:y="30" s:pid="CLK"/>
    <g s:x="0" s:y="30" s:pid="C"/>
    <g s:x="0" s:y="10" s:pid="D"/>
  </g>
  <g s:type="reduce_nor" transform="translate(128,130.5)" s:width="33" s:height="25" id="cell_U16">
    <s:alias val="$nor"/>
    <s:alias val="$reduce_nor"/>
    <s:alias val="$_NOR_"/>
    <s:alias val="$_ORNOT_"/>
    <path d="M0,25 L0,25 L15,25 A15 12.5 0 0 0 15,0 L0,0" class="cell_U16"/>
    <path d="M0,0 A30 25 0 0 1 0,25" class="cell_U16"/>
    <circle cx="34" cy="12.5" r="3" class="cell_U16"/>
    <g s:x="3" s:y="5" s:pid="A"/>
    <g s:x="3" s:y="20" s:pid="B"/>
    <g s:x="36" s:y="12.5" s:pid="Y"/>
  </g>
  <g s:type="reduce_nor" transform="translate(374,99)" s:width="33" s:height="25" id="cell_U18">
    <s:alias val="$nor"/>
    <s:alias val="$reduce_nor"/>
    <s:alias val="$_NOR_"/>
    <s:alias val="$_ORNOT_"/>
    <path d="M0,25 L0,25 L15,25 A15 12.5 0 0 0 15,0 L0,0" class="cell_U18"/>
    <path d="M0,0 A30 25 0 0 1 0,25" class="cell_U18"/>
    <circle cx="34" cy="12.5" r="3" class="cell_U18"/>
    <g s:x="3" s:y="5" s:pid="A"/>
    <g s:x="3" s:y="20" s:pid="B"/>
    <g s:x="36" s:y="12.5" s:pid="Y"/>
  </g>
  <g s:type="or" transform="translate(130,315.5)" s:width="30" s:height="25" id="cell_U19">
    <s:alias val="$or"/>
    <s:alias val="$logic_or"/>
    <s:alias val="$_OR_"/>
    <path d="M0,25 L0,25 L15,25 A15 12.5 0 0 0 15,0 L0,0" class="cell_U19"/>
    <path d="M0,0 A30 25 0 0 1 0,25" class="cell_U19"/>
    <g s:x="3" s:y="5" s:pid="A"/>
    <g s:x="3" s:y="20" s:pid="B"/>
    <g s:x="30" s:y="12.5" s:pid="Y"/>
  </g>
  <g s:type="or" transform="translate(130,255.5)" s:width="30" s:height="25" id="cell_U20">
    <s:alias val="$or"/>
    <s:alias val="$logic_or"/>
    <s:alias val="$_OR_"/>
    <path d="M0,25 L0,25 L15,25 A15 12.5 0 0 0 15,0 L0,0" class="cell_U20"/>
    <path d="M0,0 A30 25 0 0 1 0,25" class="cell_U20"/>
    <g s:x="3" s:y="5" s:pid="A"/>
    <g s:x="3" s:y="20" s:pid="B"/>
    <g s:x="30" s:y="12.5" s:pid="Y"/>
  </g>
  <g s:type="or" transform="translate(201,138)" s:width="30" s:height="25" id="cell_U14">
    <s:alias val="$or"/>
    <s:alias val="$logic_or"/>
    <s:alias val="$_OR_"/>
    <path d="M0,25 L0,25 L15,25 A15 12.5 0 0 0 15,0 L0,0" class="cell_U14"/>
    <path d="M0,0 A30 25 0 0 1 0,25" class="cell_U14"/>
    <g s:x="3" s:y="5" s:pid="A"/>
    <g s:x="3" s:y="20" s:pid="B"/>
    <g s:x="30" s:y="12.5" s:pid="Y"/>
  </g>
  <g s:type="nand" transform="translate(199,263)" s:width="30" s:height="25" id="cell_U15">
    <s:alias val="$nand"/>
    <s:alias val="$logic_nand"/>
    <s:alias val="$_NAND_"/>
    <s:alias val="$_ANDNOT_"/>
    <path d="M0,0 L0,25 L15,25 A15 12.5 0 0 0 15,0 Z" class="cell_U15"/>
    <circle cx="34" cy="12.5" r="3" class="cell_U15"/>
    <g s:x="0" s:y="5" s:pid="A"/>
    <g s:x="0" s:y="20" s:pid="B"/>
    <g s:x="36" s:y="12.5" s:pid="Y"/>
  </g>
  <g s:type="reduce_nor" transform="translate(445,49)" s:width="33" s:height="25" id="cell_U17">
    <s:alias val="$nor"/>
    <s:alias val="$reduce_nor"/>
    <s:alias val="$_NOR_"/>
    <s:alias val="$_ORNOT_"/>
    <path d="M0,25 L0,25 L15,25 A15 12.5 0 0 0 15,0 L0,0" class="cell_U17"/>
    <path d="M0,0 A30 25 0 0 1 0,25" class="cell_U17"/>
    <circle cx="34" cy="12.5" r="3" class="cell_U17"/>
    <g s:x="3" s:y="5" s:pid="A"/>
    <g s:x="3" s:y="20" s:pid="B"/>
    <g s:x="36" s:y="12.5" s:pid="Y"/>
  </g>
  <g s:type="generic" transform="translate(289,140)" s:width="30" s:height="40" id="cell_U13">
    <text x="15" y="-4" class="nodelabel cell_U13" s:attribute="ref">NAND_3</text>
    <rect width="30" height="60" s:generic="body" class="cell_U13"/>
    <g transform="translate(0,10)" s:x="0" s:y="10" s:pid="in0" id="port_U13~IN0">
      <text x="-3" y="-4" class="inputPortLabel cell_U13">IN0</text>
    </g>
    <g transform="translate(0,30)" s:x="0" s:y="10" s:pid="in0" id="port_U13~IN1">
      <text x="-3" y="-4" class="inputPortLabel cell_U13">IN1</text>
    </g>
    <g transform="translate(0,50)" s:x="0" s:y="10" s:pid="in0" id="port_U13~IN2">
      <text x="-3" y="-4" class="inputPortLabel cell_U13">IN2</text>
    </g>
    <g transform="translate(30,10)" s:x="30" s:y="10" s:pid="out0" id="port_U13~OUT">
      <text x="5" y="-4" style="fill:#000; stroke:none" class="cell_U13">OUT</text>
    </g>
  </g>
  <g s:type="and" transform="translate(376,330.5)" s:width="30" s:height="25" id="cell_U21">
    <s:alias val="$and"/>
    <s:alias val="$logic_and"/>
    <s:alias val="$_AND_"/>
    <path d="M0,0 L0,25 L15,25 A15 12.5 0 0 0 15,0 Z" class="cell_U21"/>
    <g s:x="0" s:y="5" s:pid="A"/>
    <g s:x="0" s:y="20" s:pid="B"/>
    <g s:x="30" s:y="12.5" s:pid="Y"/>
  </g>
  <g s:type="not" transform="translate(445,140.5)" s:width="30" s:height="20" id="cell_U12">
    <s:alias val="$_NOT_"/>
    <s:alias val="$not"/>
    <s:alias val="$logic_not"/>
    <path d="M0,0 L0,20 L20,10 Z" class="cell_U12"/>
    <circle cx="23" cy="10" r="3" class="cell_U12"/>
    <g s:x="0" s:y="10" s:pid="A"/>
    <g s:x="25" s:y="10" s:pid="Y"/>
  </g>
  <g s:type="inputExt" transform="translate(128,200.5)" s:width="30" s:height="20" id="cell_G3 = 1">
    <text x="15" y="-4" class="nodelabel cell_G3 = 1" s:attribute="ref">G3 = 1</text>
    <s:alias val="$_inputExt_"/>
    <path d="M0,0 L0,20 L15,20 L30,10 L15,0 Z" class="cell_G3 = 1"/>
    <g s:x="28" s:y="10" s:pid="Y"/>
  </g>
  <g s:type="inputExt" transform="translate(42,265.5)" s:width="30" s:height="20" id="cell_G1 = 1">
    <text x="15" y="-4" class="nodelabel cell_G1 = 1" s:attribute="ref">G1 = 1</text>
    <s:alias val="$_inputExt_"/>
    <path d="M0,0 L0,20 L15,20 L30,10 L15,0 Z" class="cell_G1 = 1"/>
    <g s:x="28" s:y="10" s:pid="Y"/>
  </g>
  <g s:type="inputExt" transform="translate(42,410.5)" s:width="30" s:height="20" id="cell_G0 = 1">
    <text x="15" y="-4" class="nodelabel cell_G0 = 1" s:attribute="ref">G0 = 1</text>
    <s:alias val="$_inputExt_"/>
    <path d="M0,0 L0,20 L15,20 L30,10 L15,0 Z" class="cell_G0 = 1"/>
    <g s:x="28" s:y="10" s:pid="Y"/>
  </g>
  <g s:type="inputExt" transform="translate(374,44)" s:width="30" s:height="20" id="cell_G2 = 1">
    <text x="15" y="-4" class="nodelabel cell_G2 = 1" s:attribute="ref">G2 = 1</text>
    <s:alias val="$_inputExt_"/>
    <path d="M0,0 L0,20 L15,20 L30,10 L15,0 Z" class="cell_G2 = 1"/>
    <g s:x="28" s:y="10" s:pid="Y"/>
  </g>
  <line x1="406" x2="445" y1="343" y2="343" class="net_2"/>
  <line x1="470" x2="491" y1="150.5" y2="150.5" class="net_4"/>
  <line x1="491" x2="491" y1="150.5" y2="23" class="net_4"/>
  <line x1="491" x2="12" y1="23" y2="23" class="net_4"/>
  <line x1="12" x2="12" y1="23" y2="335.5" class="net_4"/>
  <line x1="12" x2="42" y1="335.5" y2="335.5" class="net_4"/>
  <line x1="481" x2="501" y1="61.5" y2="61.5" class="net_6"/>
  <line x1="501" x2="501" y1="61.5" y2="12" class="net_6"/>
  <line x1="501" x2="22" y1="12" y2="12" class="net_6"/>
  <line x1="22" x2="22" y1="12" y2="119" class="net_6"/>
  <line x1="22" x2="42" y1="119" y2="119" class="net_6"/>
  <line x1="72" x2="98" y1="335.5" y2="335.5" class="net_5"/>
  <line x1="98" x2="98" y1="335.5" y2="135.5" class="net_5"/>
  <circle cx="98" cy="335.5" r="2" style="fill:#000" class="net_5"/>
  <line x1="98" x2="131" y1="135.5" y2="135.5" class="net_5"/>
  <line x1="72" x2="133" y1="335.5" y2="335.5" class="net_5"/>
  <line x1="70" x2="108" y1="420.5" y2="420.5" class="net_8"/>
  <line x1="108" x2="108" y1="420.5" y2="150.5" class="net_8"/>
  <line x1="108" x2="131" y1="150.5" y2="150.5" class="net_8"/>
  <line x1="70" x2="108" y1="420.5" y2="420.5" class="net_8"/>
  <line x1="108" x2="108" y1="420.5" y2="320.5" class="net_8"/>
  <circle cx="108" cy="320.5" r="2" style="fill:#000" class="net_8"/>
  <line x1="108" x2="133" y1="320.5" y2="320.5" class="net_8"/>
  <line x1="70" x2="108" y1="420.5" y2="420.5" class="net_8"/>
  <line x1="108" x2="108" y1="420.5" y2="350.5" class="net_8"/>
  <circle cx="108" cy="350.5" r="2" style="fill:#000" class="net_8"/>
  <line x1="108" x2="376" y1="350.5" y2="350.5" class="net_8"/>
  <line x1="70" x2="88" y1="275.5" y2="275.5" class="net_10"/>
  <line x1="88" x2="88" y1="275.5" y2="104" class="net_10"/>
  <circle cx="88" cy="275.5" r="2" style="fill:#000" class="net_10"/>
  <line x1="88" x2="377" y1="104" y2="104" class="net_10"/>
  <line x1="70" x2="133" y1="275.5" y2="275.5" class="net_10"/>
  <line x1="72" x2="377" y1="119" y2="119" class="net_7"/>
  <line x1="72" x2="118" y1="119" y2="119" class="net_7"/>
  <line x1="118" x2="118" y1="119" y2="260.5" class="net_7"/>
  <circle cx="118" cy="119" r="2" style="fill:#000" class="net_7"/>
  <line x1="118" x2="133" y1="260.5" y2="260.5" class="net_7"/>
  <line x1="164" x2="204" y1="143" y2="143" class="net_9"/>
  <line x1="156" x2="174" y1="210.5" y2="210.5" class="net_14"/>
  <line x1="174" x2="174" y1="210.5" y2="158" class="net_14"/>
  <line x1="174" x2="204" y1="158" y2="158" class="net_14"/>
  <line x1="160" x2="199" y1="268" y2="268" class="net_13"/>
  <line x1="160" x2="174" y1="328" y2="328" class="net_12"/>
  <line x1="174" x2="174" y1="328" y2="283" class="net_12"/>
  <line x1="174" x2="199" y1="283" y2="283" class="net_12"/>
  <line x1="402" x2="448" y1="54" y2="54" class="net_17"/>
  <line x1="410" x2="420" y1="111.5" y2="111.5" class="net_11"/>
  <line x1="420" x2="420" y1="111.5" y2="69" class="net_11"/>
  <line x1="420" x2="448" y1="69" y2="69" class="net_11"/>
  <line x1="231" x2="289" y1="150.5" y2="150.5" class="net_15"/>
  <line x1="235" x2="245" y1="275.5" y2="275.5" class="net_16"/>
  <line x1="245" x2="245" y1="275.5" y2="170.5" class="net_16"/>
  <line x1="245" x2="289" y1="170.5" y2="170.5" class="net_16"/>
  <line x1="475" x2="491" y1="343" y2="343" class="net_3"/>
  <line x1="491" x2="491" y1="343" y2="383" class="net_3"/>
  <line x1="491" x2="255" y1="383" y2="383" class="net_3"/>
  <line x1="255" x2="255" y1="383" y2="190.5" class="net_3"/>
  <line x1="255" x2="289" y1="190.5" y2="190.5" class="net_3"/>
  <line x1="320" x2="349" y1="150.5" y2="150.5" class="net_18"/>
  <line x1="349" x2="349" y1="150.5" y2="335.5" class="net_18"/>
  <circle cx="349" cy="150.5" r="2" style="fill:#000" class="net_18"/>
  <line x1="349" x2="376" y1="335.5" y2="335.5" class="net_18"/>
  <line x1="320" x2="445" y1="150.5" y2="150.5" class="net_18"/>
</svg>
